<svg xmlns="http://www.w3.org/2000/svg" width="73.92mm" height="23.71mm" viewBox="0 0 209.54 67.2">
  <defs>
    <style>
      .a {
        fill: #fff;
      }

      .b {
        fill: #222;
      }

      .c {
        fill: #004438;
      }

      .d {
        fill: #f2dab2;
      }

      .e {
        fill: #4ca585;
      }

      .f {
        fill: #f5333f;
      }

      .g {
        fill: #676767;
      }
    </style>
  </defs>
  <title>NPWSSA-primary-white-text-spot</title>
  <g>
    <g>
      <path class="a" d="M86.69,22.75V30H84.46V19.23h2.29l4.87,6.94V19.23h2.23V30H91.7Z" transform="translate(-7.09 -7.09)"/>
      <path class="a" d="M100.14,29.15a3.09,3.09,0,0,1-2.4,1,2.56,2.56,0,0,1-2.65-2.58,2.43,2.43,0,0,1,2.65-2.47,3,3,0,0,1,2.4.95V25c0-.79-.66-1.3-1.66-1.3a3.15,3.15,0,0,0-2.22.91l-.76-1.36A4.92,4.92,0,0,1,98.82,22c1.73,0,3.32.71,3.32,3v5h-2Zm0-2a2,2,0,0,0-1.6-.67c-.79,0-1.43.43-1.43,1.17s.64,1.14,1.43,1.14a2,2,0,0,0,1.6-.67Z" transform="translate(-7.09 -7.09)"/>
      <path class="a" d="M104.06,28V24H102.8V22.19h1.26V20.06h2v2.13h1.54V24h-1.54v3.51c0,.48.25.85.69.85a1,1,0,0,0,.69-.23l.43,1.55a2.46,2.46,0,0,1-1.67.5A1.92,1.92,0,0,1,104.06,28Z" transform="translate(-7.09 -7.09)"/>
      <path class="a" d="M108.46,19.82a1.22,1.22,0,0,1,1.2-1.22,1.23,1.23,0,0,1,0,2.45A1.22,1.22,0,0,1,108.46,19.82Zm.21,2.37h2V30h-2Z" transform="translate(-7.09 -7.09)"/>
      <path class="a" d="M111.69,26.06a4,4,0,1,1,8,0,4,4,0,1,1-8,0Zm6,0a2,2,0,1,0-3.89,0,2,2,0,1,0,3.89,0Z" transform="translate(-7.09 -7.09)"/>
      <path class="a" d="M126,25.26c0-1.08-.55-1.45-1.4-1.45a2.15,2.15,0,0,0-1.73.92V30h-2V22.19h2v1A3.45,3.45,0,0,1,125.48,22,2.24,2.24,0,0,1,128,24.47V30h-2Z" transform="translate(-7.09 -7.09)"/>
      <path class="a" d="M134.08,29.15a3.11,3.11,0,0,1-2.41,1A2.57,2.57,0,0,1,129,27.57a2.43,2.43,0,0,1,2.65-2.47,3,3,0,0,1,2.41.95V25c0-.79-.67-1.3-1.67-1.3a3.15,3.15,0,0,0-2.22.91l-.76-1.36A4.92,4.92,0,0,1,132.75,22c1.74,0,3.32.71,3.32,3v5h-2Zm0-2a2,2,0,0,0-1.61-.67c-.79,0-1.43.43-1.43,1.17s.64,1.14,1.43,1.14a2,2,0,0,0,1.61-.67Z" transform="translate(-7.09 -7.09)"/>
      <path class="a" d="M137.61,19.23h2V30h-2Z" transform="translate(-7.09 -7.09)"/>
      <path class="a" d="M144.94,19.23h4.91a3.31,3.31,0,0,1,3.53,3.46,3.3,3.3,0,0,1-3.53,3.42h-2.67V30h-2.24Zm4.61,2h-2.37v3h2.37a1.48,1.48,0,1,0,0-3Z" transform="translate(-7.09 -7.09)"/>
      <path class="a" d="M158.8,29.15a3.11,3.11,0,0,1-2.41,1,2.57,2.57,0,0,1-2.65-2.58,2.43,2.43,0,0,1,2.65-2.47,3,3,0,0,1,2.41.95V25c0-.79-.66-1.3-1.67-1.3a3.15,3.15,0,0,0-2.22.91l-.76-1.36A4.92,4.92,0,0,1,157.47,22c1.74,0,3.33.71,3.33,3v5h-2Zm0-2a2,2,0,0,0-1.61-.67c-.79,0-1.43.43-1.43,1.17s.64,1.14,1.43,1.14a2,2,0,0,0,1.61-.67Z" transform="translate(-7.09 -7.09)"/>
      <path class="a" d="M162.33,22.19h2v1.06A3.25,3.25,0,0,1,166.75,22v2a2.72,2.72,0,0,0-.55-.05,2.56,2.56,0,0,0-1.88.87V30h-2Z" transform="translate(-7.09 -7.09)"/>
      <path class="a" d="M170.41,27l-.92,1v2h-2V19.23h2v6.41l2.88-3.45h2.46l-3,3.52,3.1,4.24h-2.5Z" transform="translate(-7.09 -7.09)"/>
      <path class="a" d="M175.83,27.51a4.29,4.29,0,0,0,2.63,1.06c.86,0,1.27-.31,1.27-.79s-.66-.74-1.53-.91c-1.3-.26-3-.58-3-2.43,0-1.31,1.12-2.45,3.12-2.45a4.66,4.66,0,0,1,3,1.07l-.78,1.39a3.19,3.19,0,0,0-2.25-.9c-.73,0-1.2.28-1.2.73s.6.66,1.45.83c1.3.26,3.05.61,3.05,2.54,0,1.43-1.18,2.5-3.29,2.5a5.08,5.08,0,0,1-3.4-1.21Z" transform="translate(-7.09 -7.09)"/>
      <path class="a" d="M89,45.48a3.13,3.13,0,0,1-2.41,1,2.55,2.55,0,0,1-2.64-2.57,2.43,2.43,0,0,1,2.64-2.48,3.06,3.06,0,0,1,2.41.95V41.3c0-.79-.66-1.31-1.67-1.31a3.16,3.16,0,0,0-2.21.92l-.76-1.37a4.94,4.94,0,0,1,3.32-1.22c1.73,0,3.32.71,3.32,2.94v5H89Zm0-2a2,2,0,0,0-1.6-.68c-.79,0-1.43.44-1.43,1.18s.64,1.14,1.43,1.14a2,2,0,0,0,1.6-.68Z" transform="translate(-7.09 -7.09)"/>
      <path class="a" d="M97.63,41.59c0-1.08-.55-1.45-1.4-1.45a2.16,2.16,0,0,0-1.73.91v5.23h-2V38.51h2v1a3.45,3.45,0,0,1,2.66-1.21,2.24,2.24,0,0,1,2.47,2.48v5.48h-2Z" transform="translate(-7.09 -7.09)"/>
      <path class="a" d="M106.44,45.3a3,3,0,0,1-2.34,1.17c-1.92,0-3.37-1.48-3.37-4.06s1.43-4.09,3.37-4.09a2.9,2.9,0,0,1,2.34,1.19V35.56h2V46.28h-2Zm0-4.28a2.18,2.18,0,0,0-1.73-.88,2,2,0,0,0-1.92,2.27,2,2,0,0,0,1.92,2.25,2.16,2.16,0,0,0,1.73-.89Z" transform="translate(-7.09 -7.09)"/>
      <path class="a" d="M120,38.92l-1.82,7.36h-2.38l-3-10.72h2.51l1.84,7.75,2-7.75h1.74l2,7.75,1.82-7.75h2.52l-3,10.72h-2.38Z" transform="translate(-7.09 -7.09)"/>
      <path class="a" d="M127.75,36.15a1.23,1.23,0,0,1,1.2-1.22,1.22,1.22,0,1,1-1.2,1.22Zm.21,2.36h2v7.77h-2Z" transform="translate(-7.09 -7.09)"/>
      <path class="a" d="M131.49,35.56h2V46.28h-2Z" transform="translate(-7.09 -7.09)"/>
      <path class="a" d="M140.32,45.3A3,3,0,0,1,138,46.47c-1.92,0-3.37-1.48-3.37-4.06S136,38.32,138,38.32a2.9,2.9,0,0,1,2.34,1.19V35.56h2V46.28h-2Zm0-4.28a2.18,2.18,0,0,0-1.73-.88,2,2,0,0,0-1.92,2.27,2,2,0,0,0,1.92,2.25,2.16,2.16,0,0,0,1.73-.89Z" transform="translate(-7.09 -7.09)"/>
      <path class="a" d="M143.88,35.56h2V46.28h-2Z" transform="translate(-7.09 -7.09)"/>
      <path class="a" d="M147.21,36.15a1.22,1.22,0,0,1,1.2-1.22,1.22,1.22,0,1,1-1.2,1.22Zm.21,2.36h2v7.77h-2Z" transform="translate(-7.09 -7.09)"/>
      <path class="a" d="M151.43,40.3h-1.26V38.51h1.26V38.1A2.48,2.48,0,0,1,154,35.39a3.08,3.08,0,0,1,1.45.33L155,37.16a1.22,1.22,0,0,0-.64-.16c-.57,0-.95.39-.95,1.13v.38H155V40.3h-1.55v6h-2Z" transform="translate(-7.09 -7.09)"/>
      <path class="a" d="M159.17,38.32c2.27,0,3.81,1.74,3.81,4.28v.45h-5.65a2.07,2.07,0,0,0,2.19,1.8,3.08,3.08,0,0,0,2-.77l.88,1.32a4.63,4.63,0,0,1-3.13,1.07,4.08,4.08,0,0,1-.13-8.15Zm-1.87,3.34H161A1.77,1.77,0,0,0,159.17,40,1.83,1.83,0,0,0,157.3,41.66Z" transform="translate(-7.09 -7.09)"/>
      <path class="a" d="M168.29,43a4.56,4.56,0,0,0,3.34,1.45c1.22,0,1.82-.6,1.82-1.21,0-.8-.91-1.07-2.12-1.36-1.72-.41-3.92-.89-3.92-3.28,0-1.79,1.51-3.24,4-3.24a5.77,5.77,0,0,1,4.09,1.5l-1.24,1.67a4.44,4.44,0,0,0-3-1.17c-1,0-1.54.45-1.54,1.09s.88,1,2.09,1.24c1.73.4,3.94.93,3.94,3.31,0,2-1.37,3.44-4.2,3.44a6,6,0,0,1-4.46-1.7Z" transform="translate(-7.09 -7.09)"/>
      <path class="a" d="M180.29,38.32c2.26,0,3.8,1.74,3.8,4.28v.45h-5.65a2.07,2.07,0,0,0,2.19,1.8,3.08,3.08,0,0,0,2-.77l.88,1.32a4.63,4.63,0,0,1-3.13,1.07,4.08,4.08,0,0,1-.12-8.15Zm-1.88,3.34h3.75A1.78,1.78,0,0,0,180.29,40,1.84,1.84,0,0,0,178.41,41.66Z" transform="translate(-7.09 -7.09)"/>
      <path class="a" d="M185.14,38.51h2v1.07a3.21,3.21,0,0,1,2.42-1.24v2a2.72,2.72,0,0,0-.55,0,2.5,2.5,0,0,0-1.87.87v5.13h-2Z" transform="translate(-7.09 -7.09)"/>
      <path class="a" d="M189.78,38.51h2.14l2,5.41,2-5.41H198L195,46.28h-2.15Z" transform="translate(-7.09 -7.09)"/>
      <path class="a" d="M198.42,36.15a1.2,1.2,0,1,1,1.19,1.22A1.22,1.22,0,0,1,198.42,36.15Zm.2,2.36h2v7.77h-2Z" transform="translate(-7.09 -7.09)"/>
      <path class="a" d="M205.68,38.32a3.46,3.46,0,0,1,3,1.42L207.38,41a1.89,1.89,0,0,0-1.61-.83,2.27,2.27,0,0,0,0,4.52,1.94,1.94,0,0,0,1.61-.84l1.3,1.24a3.48,3.48,0,0,1-3,1.41,4.08,4.08,0,0,1,0-8.15Z" transform="translate(-7.09 -7.09)"/>
      <path class="a" d="M212.82,38.32c2.27,0,3.81,1.74,3.81,4.28v.45H211a2.07,2.07,0,0,0,2.19,1.8,3.1,3.1,0,0,0,2-.77l.88,1.32A4.63,4.63,0,0,1,213,46.47a4.08,4.08,0,0,1-.13-8.15ZM211,41.66h3.74A1.77,1.77,0,0,0,212.82,40,1.83,1.83,0,0,0,211,41.66Z" transform="translate(-7.09 -7.09)"/>
    </g>
    <path class="a" d="M84.79,60.08a4.38,4.38,0,0,0,3.3,1.53c1.87,0,2.47-1,2.47-1.85,0-1.28-1.27-1.64-2.66-2-1.68-.45-3.55-.94-3.55-3,0-1.77,1.54-3,3.6-3a4.89,4.89,0,0,1,3.73,1.5l-.79,1a4,4,0,0,0-3-1.29c-1.26,0-2.16.69-2.16,1.71s1.21,1.4,2.55,1.76c1.71.47,3.67,1,3.67,3.27,0,1.56-1,3.15-3.88,3.15a5.12,5.12,0,0,1-4-1.71Z" transform="translate(-7.09 -7.09)"/>
    <path class="a" d="M93.05,58.72a3.77,3.77,0,1,1,7.52,0,3.77,3.77,0,1,1-7.52,0Zm6.27,0c0-1.58-.89-3-2.51-3s-2.54,1.41-2.54,3,.92,3,2.54,3S99.32,60.31,99.32,58.72Z" transform="translate(-7.09 -7.09)"/>
    <path class="a" d="M107.22,61.51a3.66,3.66,0,0,1-2.7,1.29,2.17,2.17,0,0,1-2.43-2.48V54.84h1.18V60c0,1.37.68,1.77,1.7,1.77a2.9,2.9,0,0,0,2.25-1.17V54.84h1.18v7.77h-1.18Z" transform="translate(-7.09 -7.09)"/>
    <path class="a" d="M110.71,61V55.9h-1.26V54.84h1.26V52.72h1.18v2.12h1.54V55.9h-1.54v4.82c0,.58.25,1,.77,1a1.09,1.09,0,0,0,.8-.32l.35.9a1.9,1.9,0,0,1-1.42.5C111.28,62.8,110.71,62.14,110.71,61Z" transform="translate(-7.09 -7.09)"/>
    <path class="a" d="M120,57.49c0-1.36-.7-1.76-1.72-1.76a3,3,0,0,0-2.25,1.2v5.68h-1.18V51.88H116V56a3.74,3.74,0,0,1,2.72-1.32,2.16,2.16,0,0,1,2.43,2.47v5.49H120Z" transform="translate(-7.09 -7.09)"/>
    <path class="a" d="M133.51,60.23h-5.32l-.93,2.38h-1.45L130,51.88h1.62l4.23,10.73h-1.44ZM128.57,59h4.54l-2.26-6Z" transform="translate(-7.09 -7.09)"/>
    <path class="a" d="M141.87,61.51a3.66,3.66,0,0,1-2.7,1.29,2.17,2.17,0,0,1-2.43-2.48V54.84h1.18V60c0,1.37.68,1.77,1.7,1.77a2.9,2.9,0,0,0,2.25-1.17V54.84h1.19v7.77h-1.19Z" transform="translate(-7.09 -7.09)"/>
    <path class="a" d="M145,60.71a3.42,3.42,0,0,0,2.5,1.11c1.16,0,1.79-.53,1.79-1.29s-.92-1.12-1.95-1.38c-1.29-.31-2.75-.66-2.75-2.27,0-1.2,1-2.23,2.83-2.23a3.85,3.85,0,0,1,2.82,1.12l-.55.84a3,3,0,0,0-2.27-1c-1,0-1.68.48-1.68,1.17s.86,1,1.85,1.24c1.33.31,2.85.69,2.85,2.41,0,1.3-1,2.35-3,2.35a4,4,0,0,1-3.07-1.22Z" transform="translate(-7.09 -7.09)"/>
    <path class="a" d="M152.45,61V55.9h-1.26V54.84h1.26V52.72h1.18v2.12h1.54V55.9h-1.54v4.82c0,.58.25,1,.77,1a1.11,1.11,0,0,0,.8-.32l.35.9a1.92,1.92,0,0,1-1.42.5C153,62.8,152.45,62.14,152.45,61Z" transform="translate(-7.09 -7.09)"/>
    <path class="a" d="M156.56,54.84h1.18V56.1a3.2,3.2,0,0,1,2.53-1.42v1.24a2.12,2.12,0,0,0-.47-.05,2.77,2.77,0,0,0-2.06,1.24v5.5h-1.18Z" transform="translate(-7.09 -7.09)"/>
    <path class="a" d="M166.16,61.72a3.26,3.26,0,0,1-2.52,1.08A2.56,2.56,0,0,1,161,60.23a2.51,2.51,0,0,1,2.66-2.56,3.17,3.17,0,0,1,2.52,1.06v-1.4c0-1-.82-1.64-1.92-1.64a3,3,0,0,0-2.33,1.08l-.55-.84a4,4,0,0,1,3-1.28c1.61,0,3,.74,3,2.62v5.34h-1.18Zm0-2.22a2.54,2.54,0,0,0-2.1-1,1.7,1.7,0,1,0,0,3.39,2.54,2.54,0,0,0,2.1-1Z" transform="translate(-7.09 -7.09)"/>
    <path class="a" d="M169.3,51.88h1.18V62.61H169.3Z" transform="translate(-7.09 -7.09)"/>
    <path class="a" d="M172.25,52.72a.8.8,0,1,1,1.59,0,.8.8,0,1,1-1.59,0Zm.2,2.12h1.18v7.77h-1.18Z" transform="translate(-7.09 -7.09)"/>
    <path class="a" d="M180.31,61.72a3.26,3.26,0,0,1-2.52,1.08,2.56,2.56,0,0,1-2.66-2.57,2.51,2.51,0,0,1,2.66-2.56,3.15,3.15,0,0,1,2.52,1.06v-1.4c0-1-.82-1.64-1.92-1.64a3,3,0,0,0-2.33,1.08l-.55-.84a4,4,0,0,1,3-1.28c1.6,0,2.94.74,2.94,2.62v5.34h-1.18Zm0-2.22a2.53,2.53,0,0,0-2.09-1,1.7,1.7,0,1,0,0,3.39,2.53,2.53,0,0,0,2.09-1Z" transform="translate(-7.09 -7.09)"/>
  </g>
  <g>
    <path class="b" d="M40.71,7.09c-.4,0-.81,0-1.21,0a33.6,33.6,0,0,0,1.17,67.18l1.21,0A33.6,33.6,0,0,0,40.71,7.09Z" transform="translate(-7.09 -7.09)"/>
    <circle class="c" cx="40.69" cy="40.69" r="32.54" transform="translate(-23.79 29.43) rotate(-40.84)"/>
    <path class="d" d="M41.39,60.74a19.76,19.76,0,1,1,19-20.45A19.76,19.76,0,0,1,41.39,60.74Z" transform="translate(-7.09 -7.09)"/>
    <g>
      <path class="d" d="M19.86,60.35l2.56-2.09.63.77-3.81,3.11-.65-.79,1.12-3.68-2.47,2-.63-.77,3.82-3.11.6.74Z" transform="translate(-7.09 -7.09)"/>
      <path class="d" d="M18.77,53.63a1.37,1.37,0,0,1,.92.7,1.16,1.16,0,0,1-.46,1.6,1.09,1.09,0,0,1-1.56-.47,1.28,1.28,0,0,1-.14-1.14l-.43.25c-.32.17-.38.54-.17.93a1.38,1.38,0,0,0,.85.65l-.38.6a2.13,2.13,0,0,1-1.21-1,1.29,1.29,0,0,1,.46-1.94l2-1.12.43.77Zm-.81.45a.85.85,0,0,0,.07.77.54.54,0,1,0,.93-.52.82.82,0,0,0-.62-.46Z" transform="translate(-7.09 -7.09)"/>
      <path class="d" d="M17.49,52.17l-1.72.71.21.51-.75.32L15,53.19l-.91.37-.33-.82.9-.37-.26-.63.75-.31.26.63,1.49-.61c.21-.09.32-.26.25-.44a.48.48,0,0,0-.22-.24l.59-.44a1,1,0,0,1,.49.59A.86.86,0,0,1,17.49,52.17Z" transform="translate(-7.09 -7.09)"/>
      <path class="d" d="M13.16,51.4a.53.53,0,1,1-.32-1,.55.55,0,0,1,.69.33A.56.56,0,0,1,13.16,51.4Zm1-.42-.27-.84,3.4-1.09.27.84Z" transform="translate(-7.09 -7.09)"/>
      <path class="d" d="M15.31,48.91a1.78,1.78,0,1,1-.67-3.49,1.78,1.78,0,1,1,.67,3.49Zm-.49-2.59A.88.88,0,1,0,15.14,48c.55-.11,1-.5.86-1A.92.92,0,0,0,14.82,46.32Z" transform="translate(-7.09 -7.09)"/>
      <path class="d" d="M14.08,42.44c-.49,0-.65.27-.63.64a.94.94,0,0,0,.45.75l2.4-.11,0,.88-3.56.16,0-.88.47,0a1.52,1.52,0,0,1-.61-1.15,1,1,0,0,1,1.09-1.14l2.51-.11,0,.88Z" transform="translate(-7.09 -7.09)"/>
      <path class="d" d="M16.08,38.71a1.39,1.39,0,0,1,.34,1.11,1.15,1.15,0,0,1-1.3,1,1.1,1.1,0,0,1-1-1.28,1.33,1.33,0,0,1,.55-1l-.49-.05c-.36,0-.62.22-.67.66a1.35,1.35,0,0,0,.31,1l-.66.27a2.11,2.11,0,0,1-.4-1.52,1.28,1.28,0,0,1,1.5-1.31l2.29.25-.1.87Zm-.93-.1a.87.87,0,0,0-.38.67.56.56,0,0,0,.47.69c.33,0,.55-.22.58-.57a.84.84,0,0,0-.23-.74Z" transform="translate(-7.09 -7.09)"/>
      <path class="d" d="M11.91,36.08l.19-.86,4.81,1.06-.19.86Z" transform="translate(-7.09 -7.09)"/>
      <path class="d" d="M13,32l.85-2a1.49,1.49,0,0,1,2.07-.8,1.48,1.48,0,0,1,.83,2l-.46,1.08,1.62.7-.39.9Zm1.63-1.51-.42,1,1.25.54.41-1a.64.64,0,0,0-.35-.89A.65.65,0,0,0,14.66,30.45Z" transform="translate(-7.09 -7.09)"/>
      <path class="d" d="M19.94,28.35a1.34,1.34,0,0,1-.18,1.15,1.15,1.15,0,0,1-1.62.36,1.09,1.09,0,0,1-.34-1.59,1.31,1.31,0,0,1,.93-.67l-.42-.26c-.3-.19-.66-.07-.9.31a1.39,1.39,0,0,0-.16,1.05l-.71-.05a2.22,2.22,0,0,1,.3-1.54,1.29,1.29,0,0,1,1.93-.53l1.95,1.22-.47.75Zm-.79-.49a.89.89,0,0,0-.64.44.57.57,0,0,0,.12.82.55.55,0,0,0,.78-.26.88.88,0,0,0,.12-.76Z" transform="translate(-7.09 -7.09)"/>
      <path class="d" d="M18.41,25,19,24.3l.38.3a1.42,1.42,0,0,1,.23-1.19l.71.58a.9.9,0,0,0-.17.17,1.11,1.11,0,0,0-.21.9l1.83,1.48-.55.68Z" transform="translate(-7.09 -7.09)"/>
      <path class="d" d="M22.64,23.51l0,.61.64.66-.63.61-3.43-3.53.64-.62,2.05,2.12-.2-2,.78-.75.17,2.08,2.34.45-.79.77Z" transform="translate(-7.09 -7.09)"/>
      <path class="d" d="M24.64,22a1.79,1.79,0,0,0,1.22-.29c.31-.23.37-.45.24-.63s-.44-.1-.79.06c-.54.25-1.22.57-1.73-.11A1.22,1.22,0,0,1,24,19.34a2,2,0,0,1,1.38-.41l.09.73a1.34,1.34,0,0,0-1,.25c-.26.19-.35.42-.23.58s.39.09.74-.07c.54-.24,1.25-.57,1.78.14.38.53.26,1.23-.49,1.79a2.21,2.21,0,0,1-1.54.44Z" transform="translate(-7.09 -7.09)"/>
      <path class="d" d="M31,19.14a1.35,1.35,0,0,1-.78.85,1.15,1.15,0,0,1-1.55-.59,1.09,1.09,0,0,1,.59-1.52,1.33,1.33,0,0,1,1.15,0l-.2-.45a.64.64,0,0,0-.92-.24,1.34,1.34,0,0,0-.72.79L28,17.5a2.13,2.13,0,0,1,1.1-1.11A1.27,1.27,0,0,1,31,17l.95,2.1-.8.36Zm-.39-.85a.84.84,0,0,0-.77,0,.55.55,0,0,0-.35.75.56.56,0,0,0,.79.22.88.88,0,0,0,.52-.58Z" transform="translate(-7.09 -7.09)"/>
      <path class="d" d="M34.16,16.18c-.13-.48-.41-.58-.77-.48a1,1,0,0,0-.63.61l.65,2.31-.85.24-1-3.43.85-.24.12.45a1.54,1.54,0,0,1,1-.85,1,1,0,0,1,1.35.8L35.59,18l-.85.24Z" transform="translate(-7.09 -7.09)"/>
      <path class="d" d="M38.51,17.15a1.25,1.25,0,0,1-1,.66c-.84.1-1.56-.5-1.7-1.68s.41-1.93,1.26-2a1.25,1.25,0,0,1,1.09.42L38,12.72l.88-.1.58,4.88-.89.11Zm-.23-1.94a.91.91,0,0,0-.8-.31c-.5,0-.8.51-.72,1.13s.46,1,1,.92a.93.93,0,0,0,.71-.49Z" transform="translate(-7.09 -7.09)"/>
      <path class="d" d="M45.06,14.48l-1.33,3.21-1-.16-.54-5.07,1.1.17.24,3.64,1.43-3.37.76.12L46,16.67l1.35-3.38,1.1.17-2.08,4.65-1-.16Z" transform="translate(-7.09 -7.09)"/>
      <path class="d" d="M49,15.21l.84.27-1.11,3.39-.84-.28Zm.25-1.06a.53.53,0,1,1,.33.7A.56.56,0,0,1,49.23,14.15Z" transform="translate(-7.09 -7.09)"/>
      <path class="d" d="M51.3,14.58l.82.33-1.85,4.56-.82-.33Z" transform="translate(-7.09 -7.09)"/>
      <path class="d" d="M53.22,20.44a1.3,1.3,0,0,1-1.17,0c-.75-.41-1-1.31-.42-2.35s1.46-1.34,2.21-.94a1.27,1.27,0,0,1,.64,1l.87-1.59.78.42-2.35,4.32L53,20.84Zm.93-1.72a.88.88,0,0,0-1.72-.22.92.92,0,0,0,.25,1.32,1,1,0,0,0,.87,0Z" transform="translate(-7.09 -7.09)"/>
      <path class="d" d="M57.21,17.69l.72.5-2.83,4-.72-.51Z" transform="translate(-7.09 -7.09)"/>
      <path class="d" d="M58,19.93l.69.56-2.25,2.76-.68-.55Zm.61-.9a.56.56,0,0,1,.77-.1.56.56,0,0,1-.71.87A.56.56,0,0,1,58.59,19Z" transform="translate(-7.09 -7.09)"/>
      <path class="d" d="M59.05,21.91l-.4-.38.56-.6.41.39.13-.14a1.1,1.1,0,0,1,1.67-.12,1.45,1.45,0,0,1,.37.54L61.2,22a.49.49,0,0,0-.16-.25c-.18-.17-.42-.16-.66.09l-.12.13.5.47-.57.59-.49-.47-1.89,2-.64-.61Z" transform="translate(-7.09 -7.09)"/>
      <path class="d" d="M62.36,24.07a1.75,1.75,0,0,1-.44,2.55l-.16.13-1.59-1.92a.93.93,0,0,0,0,1.27,1.37,1.37,0,0,0,.85.47l-.22.68a2,2,0,0,1-1.26-.75,1.74,1.74,0,0,1,.29-2.57A1.77,1.77,0,0,1,62.36,24.07Zm-1.71.35,1.05,1.27a.79.79,0,0,0,.08-1.14A.82.82,0,0,0,60.65,24.42Z" transform="translate(-7.09 -7.09)"/>
      <path class="d" d="M63.24,29.06a2,2,0,0,0,.07,1.62c.24.48.6.59.85.47s.26-.58.14-1.12c-.17-.76-.41-1.73.57-2.22a1.56,1.56,0,0,1,2.11.9,2.45,2.45,0,0,1,.2,1.93l-.93-.15a1.94,1.94,0,0,0-.11-1.43c-.2-.4-.49-.51-.76-.38s-.21.54-.09,1.08c.18.76.4,1.74-.58,2.23-.8.41-1.68.17-2.24-.95a2.56,2.56,0,0,1-.19-2.1Z" transform="translate(-7.09 -7.09)"/>
      <path class="d" d="M67.47,33.45a1.76,1.76,0,0,1-1.36,2.2l-.2.06-.76-2.38a.92.92,0,0,0-.49,1.17,1.3,1.3,0,0,0,.61.75l-.46.55a2,2,0,0,1-.89-1.16,1.88,1.88,0,0,1,3.55-1.19Zm-1.72-.32.51,1.57a.81.81,0,0,0,.5-1A.83.83,0,0,0,65.75,33.13Z" transform="translate(-7.09 -7.09)"/>
      <path class="d" d="M68.07,36l.16.87-.48.09a1.41,1.41,0,0,1,.76.95l-.9.17a1.19,1.19,0,0,0,0-.25,1.13,1.13,0,0,0-.55-.74l-2.31.44-.16-.87Z" transform="translate(-7.09 -7.09)"/>
      <path class="d" d="M68.52,38.26l.06.94-2.41,1,2.53.7.07.95-3.65-1.1-.07-.95Z" transform="translate(-7.09 -7.09)"/>
      <path class="d" d="M68.7,42.55l0,.88-3.56-.13,0-.88Zm1.09-.06a.56.56,0,0,1,.54.55.56.56,0,0,1-1.12,0A.56.56,0,0,1,69.79,42.49Z" transform="translate(-7.09 -7.09)"/>
      <path class="d" d="M68.49,46.11a1.57,1.57,0,0,1-.82,1.23l-.49-.65a.81.81,0,0,0,.48-.65,1,1,0,0,0-2-.29.83.83,0,0,0,.28.76l-.64.49a1.5,1.5,0,0,1-.46-1.4,1.87,1.87,0,0,1,3.7.51Z" transform="translate(-7.09 -7.09)"/>
      <path class="d" d="M67.68,49.81a1.75,1.75,0,0,1-2.35,1.07l-.2-.06.69-2.4a.92.92,0,0,0-1.06.7,1.33,1.33,0,0,0,.09,1l-.69.2a2,2,0,0,1-.09-1.46,1.87,1.87,0,0,1,3.61,1Zm-1.24-1.22L66,50.17a.8.8,0,0,0,1-.57A.82.82,0,0,0,66.44,48.59Z" transform="translate(-7.09 -7.09)"/>
    </g>
    <g>
      <path class="d" d="M34.59,64.72a1.09,1.09,0,0,0,.81.37c.29,0,.44-.15.44-.31s-.22-.27-.52-.34-.94-.22-.94-.82a.85.85,0,0,1,1-.81,1.39,1.39,0,0,1,1,.37l-.3.42a1.06,1.06,0,0,0-.73-.29c-.24,0-.37.11-.37.27s.21.24.5.31,1,.24,1,.83-.33.87-1,.87a1.44,1.44,0,0,1-1.08-.43Z" transform="translate(-7.09 -7.09)"/>
      <path class="d" d="M38,62.8a1.4,1.4,0,1,1-1.32,1.4A1.32,1.32,0,0,1,38,62.8Zm0,.51a.89.89,0,1,0,.77.89A.8.8,0,0,0,38,63.31Z" transform="translate(-7.09 -7.09)"/>
      <path class="d" d="M39.66,62.85h.54v1.6a.56.56,0,0,0,.59.63.56.56,0,0,0,.58-.63v-1.6h.55v1.61a1.13,1.13,0,0,1-2.26,0Z" transform="translate(-7.09 -7.09)"/>
      <path class="d" d="M43,63.35h-.74v-.5h2v.5h-.74v2.19H43Z" transform="translate(-7.09 -7.09)"/>
      <path class="d" d="M46.37,64.41h-1.2v1.13h-.54V62.85h.54v1.06h1.2V62.85h.54v2.69h-.54Z" transform="translate(-7.09 -7.09)"/>
      <path class="d" d="M32.37,69H31.24l-.16.46h-.6l1-2.69h.68l1,2.69h-.59Zm-1-.5h.84l-.42-1.23Z" transform="translate(-7.09 -7.09)"/>
      <path class="d" d="M33.23,66.79h.54v1.6a.56.56,0,0,0,.59.63.56.56,0,0,0,.58-.63v-1.6h.55V68.4a1.13,1.13,0,0,1-2.26,0Z" transform="translate(-7.09 -7.09)"/>
      <path class="d" d="M36.11,68.67a1.12,1.12,0,0,0,.81.36c.3,0,.44-.15.44-.3s-.22-.27-.51-.35-1-.22-1-.82a.86.86,0,0,1,1-.81,1.38,1.38,0,0,1,1,.37l-.3.42a1,1,0,0,0-.72-.29c-.25,0-.38.11-.38.27s.22.24.51.31.95.24.95.84-.33.86-1,.86a1.39,1.39,0,0,1-1.07-.43Z" transform="translate(-7.09 -7.09)"/>
      <path class="d" d="M38.83,67.29h-.74v-.5h2v.5h-.74v2.19h-.54Z" transform="translate(-7.09 -7.09)"/>
      <path class="d" d="M41.39,68.52H41v1h-.54V66.79h1.18a.81.81,0,0,1,.85.87.77.77,0,0,1-.55.8l.57,1h-.62Zm.17-1.24H41V68h.56a.35.35,0,0,0,.38-.37A.36.36,0,0,0,41.56,67.28Z" transform="translate(-7.09 -7.09)"/>
      <path class="d" d="M44.52,69H43.38l-.16.46h-.59l1-2.69h.68l1,2.69h-.59Zm-1-.5h.84L44,67.29Z" transform="translate(-7.09 -7.09)"/>
      <path class="d" d="M45.5,66.79H46V69h1.07v.5H45.5Z" transform="translate(-7.09 -7.09)"/>
      <path class="d" d="M47.49,66.79H48v2.69h-.54Z" transform="translate(-7.09 -7.09)"/>
      <path class="d" d="M50.14,69H49l-.16.46h-.59l1-2.69h.68l1,2.69H50.3Zm-1-.5H50l-.42-1.23Z" transform="translate(-7.09 -7.09)"/>
    </g>
    <g>
      <path class="e" d="M27.61,68.7a.21.21,0,0,1-.18-.09.23.23,0,0,1,0-.29,4.09,4.09,0,0,0,.7-2.75,11.64,11.64,0,0,1,.05-1.18.36.36,0,0,0,0-.1,7.68,7.68,0,0,1-1,.27l-.25.08a2.32,2.32,0,0,1,.4,1.28,2.83,2.83,0,0,1-1.05,2.58l-.11,0a.2.2,0,0,1-.13,0,.25.25,0,0,1-.11-.21,3.43,3.43,0,0,0-.17-1,5.27,5.27,0,0,1-.14-.64,3.4,3.4,0,0,1-2.27,1.14h0a.24.24,0,0,1-.12-.44A2.27,2.27,0,0,0,24,66.23a2.78,2.78,0,0,1,.88-1.14l-1,.15a7.14,7.14,0,0,1-1.08.08c-1.4,0-1.78-.5-1.82-.56a.23.23,0,0,1,0-.26,2.34,2.34,0,0,1,1.81-.94h.4a4.61,4.61,0,0,1,2.58.56,3,3,0,0,1,1-.64c-.7,0-1.31-.15-1.35-.15a.24.24,0,0,1-.18-.16.22.22,0,0,1,.06-.24,4,4,0,0,1,2.55-1.5,1.52,1.52,0,0,1,.76.2,1,1,0,0,1,.56.79,5.45,5.45,0,0,0,1.47-1.18,5.54,5.54,0,0,0,.73-1.4c.06-.15.05-.24,0-.27s-.09-.06-.25-.06h-.15l-1,.16c-1.2.21-2.21.38-2.53.38a.38.38,0,0,1-.31-.18c-.07-.23.12-.5.5-.94l.07-.08a4.18,4.18,0,0,1,1.3-1.15,3.86,3.86,0,0,1,1.41-.32l.4-.05.35,0c.68-.09,1.38-.19,2.07-.24s1.33-.11,2-.17c1.14-.11,2.32-.22,3.49-.25l.68,0,1,0h.7l.1,0s0-.14-.27-.42a42,42,0,0,0-3-3.29l-.69-.72L36,50.77a1.84,1.84,0,0,1-1.06.81,9.82,9.82,0,0,1-1.4.32,3.78,3.78,0,0,0-1.06.28,2.38,2.38,0,0,1-1.27.4.32.32,0,0,1-.32-.27,2.3,2.3,0,0,1,1.47-1.84A10.19,10.19,0,0,1,35.3,50l-.48-.54c-.37-.41-.73-.82-1.12-1.2s-.88-.81-1.33-1.21a4.73,4.73,0,0,1-1.14,1,3,3,0,0,1-1.6.47h-.16a4,4,0,0,1-2.34-.66.26.26,0,0,1-.1-.2.22.22,0,0,1,.1-.18c.22-.15.43-.32.64-.48A4.38,4.38,0,0,1,30.4,45.8a2.6,2.6,0,0,1,.61.07l.25,0L31,45.65c-.41-.41-.82-.81-1.21-1.23A20,20,0,0,0,27,42a3.76,3.76,0,0,1-.18,1.32A6.8,6.8,0,0,1,25,46.52a.3.3,0,0,1-.16,0h-.07a.22.22,0,0,1-.15-.16,9.52,9.52,0,0,1-.13-3.35,2.43,2.43,0,0,1,1.26-1.94l-.51-.36c-.62-.44-1.25-.9-1.91-1.28l-.2-.12a6.61,6.61,0,0,0-.87-.46c-.5-.21-.63-.35-.62-.93,0-.27,0-.63.39-.63l.23,0a2.54,2.54,0,0,1,.93.56,1.83,1.83,0,0,0,.2.17c.27.17.54.34.8.52l.75.53a3.81,3.81,0,0,1-.11-1c.06-2.25,2.92-3.33,3.05-3.38h.08a.2.2,0,0,1,.13,0,.22.22,0,0,1,.1.2,18.14,18.14,0,0,1-.45,3.62,5.72,5.72,0,0,1-.85,1.79,17.1,17.1,0,0,1,1.88,1.35,6.4,6.4,0,0,1-.14-1.34,3.5,3.5,0,0,1,2.62-3.63,2.36,2.36,0,0,1,.4,0,.23.23,0,0,1,.19.1.21.21,0,0,1,.05.2,6.47,6.47,0,0,0-.08,1.88l0,.14a4.6,4.6,0,0,1-.39,2.74,7.34,7.34,0,0,1-1.14,1.38l.54.55c.76.76,1.54,1.56,2.37,2.25.22.18,2.53,2.41,3.41,3.3.71.71,1.39,1.46,2.07,2.2.39.44.79.87,1.19,1.3l1.64,1.74.36.4.48.52.15.14a1.8,1.8,0,0,1,.44.54.71.71,0,0,1,.06.23c0,.09.11.1.21.1a3.23,3.23,0,0,0,0-.35v-.25c0-.57.07-1.13.09-1.7l.06-1.4q0-.75.06-1.5c0-.11,0-.22,0-.32s0-.28,0-.42,0-.58.35-.58c.16,0,.29.11.48.31A4,4,0,0,1,45,51.3a3,3,0,0,1,.1,1.36l0,.37q0,.48,0,1c0,.44,0,.9,0,1.35s-.08.74.05.88a.27.27,0,0,0,.22.07l.18,0c.55-.09,1-.14,1.4-.17a2.17,2.17,0,0,0-.15-.45,4.25,4.25,0,0,1-.35-1,5.94,5.94,0,0,1-.28-2.18v-.19c0-.62,0-1.25,0-1.25a.21.21,0,0,1,.11-.2.25.25,0,0,1,.12,0,.23.23,0,0,1,.11,0A4.46,4.46,0,0,1,49.17,55a2.44,2.44,0,0,1-.52,1.1,1.63,1.63,0,0,0,.91-.45,4.64,4.64,0,0,0,.64-.84,5.33,5.33,0,0,1,.42-.6,3.88,3.88,0,0,1,.26-.31,2.47,2.47,0,0,1-1.3-2.29,5,5,0,0,1,1.31-3.08.21.21,0,0,1,.17-.07h0a.24.24,0,0,1,.17.14s.09.21.2.55a8.73,8.73,0,0,1,.6,3.64l0,0a11.56,11.56,0,0,1,2.19-1.34A1.73,1.73,0,0,1,54,50.9a2.34,2.34,0,0,1-.07-1,4.7,4.7,0,0,1,.12-.51c.06-.17.13-.33.2-.5a5.2,5.2,0,0,1,1.87-2l.36-.19a5.7,5.7,0,0,1,.73-.25h.06a.23.23,0,0,1,.21.14.22.22,0,0,1-.07.28,2.91,2.91,0,0,0-1,1.81c-.08.36-.13.74-.18,1.11A6.33,6.33,0,0,1,56,50.8a12,12,0,0,1,2.31-.21,4.74,4.74,0,0,1,.86-3.23,2.8,2.8,0,0,1,1.38-1.29h.08a.25.25,0,0,1,.19.09c.1.14.28.7-.41,2.85a12.12,12.12,0,0,1-.74,1.54h.76a10.21,10.21,0,0,1,1.54.1l.11,0c.73.1,1.44.25,1.61.67a.57.57,0,0,1-.11.58.61.61,0,0,1-.49.27h0a1.18,1.18,0,0,1-.31-.05l-.14,0a11.31,11.31,0,0,0-1.47-.21h-.27a11.1,11.1,0,0,0,1.45.63.27.27,0,0,1,.15.21.25.25,0,0,1-.13.22,4.81,4.81,0,0,1-2,.37H60.2a1.49,1.49,0,0,1-1.45-1.44,9.84,9.84,0,0,0-2.44.34,4.2,4.2,0,0,1,.52.36s.16.13.73.13a9.3,9.3,0,0,0,1-.07h0a.24.24,0,0,1,.22.16.22.22,0,0,1-.1.27l-1.64,1.06a2.69,2.69,0,0,1-1,.21,2,2,0,0,1-.34,0,1.34,1.34,0,0,1-.07.18l-.14.41a3.47,3.47,0,0,0-.19,1.6,3.82,3.82,0,0,1-.18,1.63,5.17,5.17,0,0,1-.28.71c-.09.17-.18.35-.3.54.44.31.87.64,1.3,1s.76.58,1.15.86a.27.27,0,0,1,.1.16.26.26,0,0,1-.07.19l-.07.08a1.79,1.79,0,0,1-.62.51l-.21,0a1,1,0,0,1-.72-.45l-.09-.1a8.17,8.17,0,0,0-.7-.62,4,4,0,0,1-.75,2.73l-.35.51-.36.51-.34.52a.24.24,0,0,1-.2.11l-.08,0a.23.23,0,0,1-.15-.25,9,9,0,0,0-.22-3,1.64,1.64,0,0,1,.53-1.82,1.74,1.74,0,0,1,.33-.23l.16-.08-.31-.22a19.07,19.07,0,0,0-2.31-1.48A2.55,2.55,0,0,0,49.39,58c-.27,0-.53,0-.79,0-1.35.1-2.7.17-4.05.23l-2.74.15c-2,.13-4,.34-6.29.64-.22,0-.45,0-.7,0a2.86,2.86,0,0,0-1.81.48,4.51,4.51,0,0,0-.74,1.13l-.37.66a3.94,3.94,0,0,1-1.59,1.8l-.82.45a2,2,0,0,1,.71,1.46,3.4,3.4,0,0,1-.83,2.28h0a2.6,2.6,0,0,1-.34.38,7.16,7.16,0,0,1-1.31.9ZM52.1,57.77a1.29,1.29,0,0,0,.18.13.78.78,0,0,1,.19.12l.36.27a2.36,2.36,0,0,1-.22-.68.62.62,0,0,1-.23.12A.9.9,0,0,1,52.1,57.77Zm.2-2.06a.7.7,0,0,1,.56.21,3.87,3.87,0,0,1,2.15-2l-.07-.07a1.53,1.53,0,0,1-.44-.91l-.23.14a6,6,0,0,0-2.59,2.7l.14,0A4.05,4.05,0,0,1,52.3,55.71Z" transform="translate(-7.09 -7.09)"/>
      <path class="b" d="M27.94,34.93a18.42,18.42,0,0,1-.45,3.57,4.8,4.8,0,0,1-1,1.91,16.39,16.39,0,0,1,2.68,2,5.79,5.79,0,0,1-.35-2A3.25,3.25,0,0,1,31.27,37a1.82,1.82,0,0,1,.36,0h0a6.47,6.47,0,0,0-.08,1.95,4.66,4.66,0,0,1-.34,2.75A7.32,7.32,0,0,1,30,43.11c1,1,2,2.07,3.09,3,.2.17,2.52,2.4,3.4,3.28,1.12,1.13,2.16,2.34,3.25,3.5.54.58,1.09,1.15,1.63,1.74.29.3.56.61.85.92a2.72,2.72,0,0,1,.55.62c.06.13,0,.3.14.4a.74.74,0,0,0,.34.07h0a.25.25,0,0,0,.17-.08c.11-.16.06-.5.08-.75,0-.8.07-1.61.11-2.42s.08-1.46.09-2.19c0-.24,0-.49,0-.73s0-.36.12-.36.17.09.3.24a3.61,3.61,0,0,1,.73,1A3.89,3.89,0,0,1,44.85,53c0,.76,0,1.54,0,2.29s-.11,1.21.51,1.21l.22,0c.46-.07.91-.14,1.37-.17a.28.28,0,0,0,.22-.3c-.2-.71-.16-.22-.51-1.45a6,6,0,0,1-.26-2.31c0-.62,0-1.25,0-1.25A4.18,4.18,0,0,1,48.94,55,2.12,2.12,0,0,1,48,56.34h.22a2,2,0,0,0,1.5-.54,13.24,13.24,0,0,0,1.08-1.47c.15-.18.31-.35.47-.52a2.3,2.3,0,0,1-1.45-2.21,4.79,4.79,0,0,1,1.24-2.93s.08.2.19.54a9.06,9.06,0,0,1,.57,4.07l.42-.35a11.34,11.34,0,0,1,2.42-1.43,1.79,1.79,0,0,1-.4-.67,2.19,2.19,0,0,1-.06-.92,4.21,4.21,0,0,1,.12-.48A3.66,3.66,0,0,1,54.5,49,4.88,4.88,0,0,1,56.29,47a2.06,2.06,0,0,1,.33-.17,4.34,4.34,0,0,1,.69-.24,3.14,3.14,0,0,0-1.13,1.94c-.08.37-.14.76-.19,1.14a3.87,3.87,0,0,1-.37,1.43,11.29,11.29,0,0,1,3-.32c-.14-.43-.31-1.54.76-3.34a2.54,2.54,0,0,1,1.26-1.18s.28.37-.44,2.63a10.55,10.55,0,0,1-1,1.86h0l1.18,0a10.7,10.7,0,0,1,1.5.1c.38.06,2,.21,1.47.9a.37.37,0,0,1-.31.18,2,2,0,0,1-.4-.09,12.75,12.75,0,0,0-1.51-.21l-1,0a1.31,1.31,0,0,1,.3.27,8,8,0,0,0,1.74.84,4.71,4.71,0,0,1-1.93.34H60.2c-1,0-1.21-1-1.25-1.44h-.2a9.83,9.83,0,0,0-3.17.57,2.16,2.16,0,0,1,1.12.58,1.74,1.74,0,0,0,.86.15,9.46,9.46,0,0,0,1-.07l-1.65,1a2.37,2.37,0,0,1-.87.18,1.38,1.38,0,0,1-.48-.08l-.15.38c0,.13-.09.27-.14.42-.48,1,0,2.18-.36,3.22a5.89,5.89,0,0,1-.28.69,7.67,7.67,0,0,1-.4.71c.89.62,1.74,1.31,2.62,1.94a2,2,0,0,1-.6.53l-.13,0c-.26,0-.46-.28-.64-.48a7.86,7.86,0,0,0-1.3-1.05,1.51,1.51,0,0,1,.11.22,3.54,3.54,0,0,1-.62,3l-.35.51c-.12.17-.25.33-.37.51l-.34.52a9,9,0,0,0-.22-3,1.42,1.42,0,0,1,.44-1.58,1.89,1.89,0,0,1,.31-.22,1.76,1.76,0,0,1,.39-.16l.15-.06-.68-.47a18.47,18.47,0,0,0-2.33-1.5,2.91,2.91,0,0,0-1.33-.27c-.27,0-.54,0-.8,0-2.27.18-4.53.25-6.79.39s-4.21.35-6.32.64c-.81.11-2,0-2.63.6a6.65,6.65,0,0,0-1,1.58,4.28,4.28,0,0,1-1.64,2c-.39.2-.77.42-1.16.63A1.74,1.74,0,0,1,30,65.13a3.18,3.18,0,0,1-.78,2.11,1.92,1.92,0,0,1-.32.37,6.66,6.66,0,0,1-1.26.86c1-1.2.65-2.64.81-4a1.8,1.8,0,0,1,.18-.54h0a6.85,6.85,0,0,1-1.43.47,1.3,1.3,0,0,0-.59.27c.56.32.56,1.31.56,1.31,0,1.85-.94,2.37-.94,2.37A4.08,4.08,0,0,0,26,67.24,3.45,3.45,0,0,1,25.86,66l-.05.09a3.13,3.13,0,0,1-2.43,1.52,2.38,2.38,0,0,0,.88-1.26,3.24,3.24,0,0,1,1.41-1.45,1,1,0,0,1,0-.15c-.28.06-.8.16-1.8.3a7.27,7.27,0,0,1-1.06.08c-1.31,0-1.61-.46-1.61-.46a2.12,2.12,0,0,1,1.62-.84h.4a3.85,3.85,0,0,1,2.61.64c.5-.66,1.48-.85,2.23-1.17h-.36a17.58,17.58,0,0,1-2.18-.18c1.12-1.11,1.85-1.44,2.39-1.44a1.37,1.37,0,0,1,.65.18.75.75,0,0,1,.37,1,6.27,6.27,0,0,0,1.95-1.47,5.57,5.57,0,0,0,.76-1.45c.19-.48,0-.65-.43-.65h-.17c-.35,0-3,.54-3.51.54,0,0-.08,0-.08,0-.06-.18.43-.69.52-.8a4,4,0,0,1,1.22-1.09A5.45,5.45,0,0,1,31,57.56c.79-.11,1.6-.22,2.4-.28,1.83-.13,3.64-.38,5.47-.42.55,0,1.11-.07,1.66-.07h.73a.4.4,0,0,0,.25-.1c.19-.23-.19-.63-.32-.79-1.13-1.41-2.44-2.68-3.68-4-.52-.52-1-1-1.53-1.58a1.47,1.47,0,0,1-1.07,1c-1,.35-2,.34-2.49.63a2.22,2.22,0,0,1-1.16.37h0c-.31,0,.23-1.29,1.24-1.66a10.07,10.07,0,0,1,3.16-.45h.21c-.68-.7-1.28-1.46-2-2.14-.49-.48-1-.93-1.53-1.39A4.24,4.24,0,0,1,31.1,47.9a2.73,2.73,0,0,1-1.46.43h-.16a3.8,3.8,0,0,1-2.21-.62c1-.68,1.89-1.68,3.12-1.68a2.2,2.2,0,0,1,.56.07,5,5,0,0,1,1,.17c-.66-.68-1.35-1.32-2-2a21.82,21.82,0,0,0-3.39-2.84c.19.25.33.77,0,1.86a6.54,6.54,0,0,1-1.79,3.06,9.38,9.38,0,0,1-.12-3.25,2.06,2.06,0,0,1,1.5-1.9h.07L26,41c-.84-.58-1.66-1.21-2.54-1.72a9,9,0,0,0-1.1-.6c-.41-.17-.49-.23-.48-.71,0-.26,0-.39.16-.39l.18,0a1.14,1.14,0,0,1,.48.24c.17.05.42.36.58.46s.53.34.78.52c.48.33.95.67,1.44,1a2.79,2.79,0,0,1-.42-1.7c.05-2.11,2.89-3.16,2.89-3.16M51.47,56c.23,0,.56-.08.83-.08a.44.44,0,0,1,.38.13c.13.18-.1.35-.14.56s.18.76-.22.88-.75-.08-.48.35c.08.12.37.25.49.35s.39.3.6.43l.73.4A2.51,2.51,0,0,1,53,56.28,3.67,3.67,0,0,1,55.56,54a1.27,1.27,0,0,1-.45-.3,1.21,1.21,0,0,1-.35-1.15c-.2.1-.41.21-.61.33A6.09,6.09,0,0,0,51.34,56h.13M27.94,34.46a.51.51,0,0,0-.17,0c-.12,0-3.13,1.19-3.19,3.59a3.33,3.33,0,0,0,0,.55l-.3-.21c-.26-.18-.53-.36-.8-.52a1.06,1.06,0,0,1-.16-.15,2.06,2.06,0,0,0-.41-.32,1.53,1.53,0,0,0-.63-.29,1.06,1.06,0,0,0-.29,0q-.61,0-.63.81V38a1,1,0,0,0,.77,1.14,8.59,8.59,0,0,1,.84.45l.21.12c.64.38,1.27.83,1.88,1.26l.23.17A2.75,2.75,0,0,0,24.24,43a9.7,9.7,0,0,0,.13,3.43.47.47,0,0,0,.31.33l.14,0a.51.51,0,0,0,.31-.11,7.08,7.08,0,0,0,1.93-3.3,5.94,5.94,0,0,0,.18-.92,18.63,18.63,0,0,1,2.39,2.1c.31.34.64.67,1,1h-.21a4.68,4.68,0,0,0-2.77,1.29,6.74,6.74,0,0,1-.62.47.46.46,0,0,0-.2.38.47.47,0,0,0,.19.38,4.24,4.24,0,0,0,2.48.72h.17a3.26,3.26,0,0,0,1.71-.5,4.55,4.55,0,0,0,1-.91c.4.35.78.69,1.14,1s.74.77,1.11,1.19l.16.17a9.24,9.24,0,0,0-2.5.45,2.47,2.47,0,0,0-1.62,2.1.55.55,0,0,0,.54.47,2.73,2.73,0,0,0,1.4-.43,3.54,3.54,0,0,1,1-.26A9,9,0,0,0,35,51.8a2.18,2.18,0,0,0,1-.66l1.09,1.13.7.71a42.65,42.65,0,0,1,2.95,3.21l.06.07.06.07H40.5c-.33,0-.67,0-1,0l-.67,0c-1.18,0-2.37.14-3.51.25l-2,.17c-.72,0-1.44.15-2.13.25l-.31,0-.4,0a4,4,0,0,0-1.49.34,4.53,4.53,0,0,0-1.37,1.21l-.06.07c-.38.43-.66.8-.55,1.16a.5.5,0,0,0,.53.35,24.71,24.71,0,0,0,2.57-.38l1-.16h.12v0a5.15,5.15,0,0,1-.7,1.33,4.65,4.65,0,0,1-1.13,1,1.28,1.28,0,0,0-.6-.62,1.73,1.73,0,0,0-.87-.24,4.26,4.26,0,0,0-2.72,1.57.47.47,0,0,0,.26.8l.57.08-.25.19a5.16,5.16,0,0,0-2.55-.5h-.42a2.64,2.64,0,0,0-2,1,.47.47,0,0,0,0,.53c.07.12.52.67,2,.67A7.89,7.89,0,0,0,24,65.47l.27,0a2.57,2.57,0,0,0-.42.72,2.1,2.1,0,0,1-.68,1,.47.47,0,0,0-.2.54.45.45,0,0,0,.44.33h0a3.67,3.67,0,0,0,2.11-.89c0,.07,0,.15.07.23a3.82,3.82,0,0,1,.16.88.48.48,0,0,0,.21.43.47.47,0,0,0,.25.07.53.53,0,0,0,.24-.06c.11-.07,1.16-.72,1.16-2.78a2.74,2.74,0,0,0-.26-1.14l.59-.16c0,.34,0,.65,0,.95a3.77,3.77,0,0,1-.64,2.6.48.48,0,0,0,0,.59.51.51,0,0,0,.37.18.39.39,0,0,0,.21-.06A6.41,6.41,0,0,0,29.17,68a2.77,2.77,0,0,0,.4-.45,3.68,3.68,0,0,0,.87-2.42,2.29,2.29,0,0,0-.56-1.39l.54-.29a4.21,4.21,0,0,0,1.69-1.9l.14-.25c.08-.13.15-.27.22-.41a4.5,4.5,0,0,1,.7-1.07,2.62,2.62,0,0,1,1.66-.41q.39,0,.72-.06c2.25-.3,4.3-.51,6.28-.63l2.76-.15c1.32-.07,2.69-.14,4-.24.25,0,.51,0,.77,0a2.36,2.36,0,0,1,1.11.22,17.45,17.45,0,0,1,2.28,1.46h0a1.84,1.84,0,0,0-.22.17A1.88,1.88,0,0,0,52,62.19a8.46,8.46,0,0,1,.21,2.86.46.46,0,0,0,.3.49l.16,0a.49.49,0,0,0,.4-.21l.34-.53.28-.39.07-.1.36-.52a4.36,4.36,0,0,0,.82-2.33l.26.25.08.1a1.25,1.25,0,0,0,.9.53.92.92,0,0,0,.28,0,1.94,1.94,0,0,0,.72-.57l.08-.08a.49.49,0,0,0,.12-.37.45.45,0,0,0-.19-.33L56,60.11c-.36-.28-.74-.56-1.12-.83.08-.13.14-.26.2-.38a5.86,5.86,0,0,0,.3-.75,4.13,4.13,0,0,0,.18-1.7A3.06,3.06,0,0,1,55.75,55s0,0,0-.06.09-.28.13-.4h.19a2.83,2.83,0,0,0,1.06-.22l.06,0,1.65-1.05A.41.41,0,0,0,59,53a1.59,1.59,0,0,0,1.16.49h.16a5.05,5.05,0,0,0,2.14-.39.45.45,0,0,0,.26-.44.47.47,0,0,0-.29-.41l.15,0,.13,0a1.43,1.43,0,0,0,.37.06.83.83,0,0,0,.68-.37.81.81,0,0,0,.14-.82c-.23-.55-1-.7-1.8-.81H62a10.68,10.68,0,0,0-1.58-.11h-.36c.3-.58.54-1.16.55-1.19.54-1.69.67-2.72.38-3.1a.46.46,0,0,0-.37-.18l-.15,0A3,3,0,0,0,59,47.27a5.21,5.21,0,0,0-.9,3.09,14.41,14.41,0,0,0-1.73.14c0-.24.09-.49.12-.73,0-.39.1-.75.18-1.1a2.65,2.65,0,0,1,1-1.67.47.47,0,0,0-.28-.84H57.2a4.66,4.66,0,0,0-.77.27l-.38.19a5.34,5.34,0,0,0-2,2.12,4.72,4.72,0,0,0-.22.54,3.65,3.65,0,0,0-.13.55A2.65,2.65,0,0,0,53.81,51a3.45,3.45,0,0,0,.14.34,11.71,11.71,0,0,0-1.64,1A8.94,8.94,0,0,0,51.69,49c-.11-.32-.2-.53-.2-.53a.47.47,0,0,0-.34-.29h-.09a.48.48,0,0,0-.34.14,5.34,5.34,0,0,0-1.37,3.24,2.7,2.7,0,0,0,1.18,2.35.87.87,0,0,0-.09.11c-.16.2-.3.41-.44.62a4.64,4.64,0,0,1-.6.8l-.18.14A2.45,2.45,0,0,0,49.4,55a4.63,4.63,0,0,0-2.83-4.44.54.54,0,0,0-.21-.05.45.45,0,0,0-.25.07.48.48,0,0,0-.22.41s0,.62,0,1.23v.19a6.62,6.62,0,0,0,.29,2.25,5.19,5.19,0,0,0,.37,1.06.81.81,0,0,1,.06.13c-.34,0-.7.08-1.14.15h-.21a3.45,3.45,0,0,1,0-.68,10.64,10.64,0,0,0,0-1.38c0-.31,0-.63,0-.94l0-.36a3.07,3.07,0,0,0-.11-1.46,4.28,4.28,0,0,0-.82-1.2.94.94,0,0,0-.65-.39c-.25,0-.56.14-.58.81,0,.15,0,.29,0,.44s0,.2,0,.3c0,.5,0,1-.06,1.51l0,.67,0,.72c0,.54,0,1.08-.08,1.63a1.86,1.86,0,0,0-.33-.35l-.14-.14L42,54.69l-.35-.39-1-1L40,52.56l-1.18-1.29c-.67-.73-1.36-1.49-2.08-2.22s-3.19-3.11-3.43-3.31c-.82-.69-1.6-1.48-2.35-2.24l-.38-.38a7.42,7.42,0,0,0,1-1.25A4.78,4.78,0,0,0,32,39v-.14A5.78,5.78,0,0,1,32.1,37a.51.51,0,0,0-.08-.4.45.45,0,0,0-.36-.19h0a2.74,2.74,0,0,0-.47,0c-1.84.3-2.8,2.17-2.8,3.86a6.57,6.57,0,0,0,0,.78c-.4-.31-.8-.59-1.22-.86a5.83,5.83,0,0,0,.74-1.66,19.36,19.36,0,0,0,.47-3.68.47.47,0,0,0-.2-.39.46.46,0,0,0-.27-.09ZM56.87,52.29a9.9,9.9,0,0,1,1.69-.2,2.29,2.29,0,0,0,.08.28h-.1a8.39,8.39,0,0,1-1,.07,1.73,1.73,0,0,1-.58-.06l-.11-.09Zm-4.8,3.2a6.14,6.14,0,0,1,2.27-2.19,1.88,1.88,0,0,0,.28.52,4.18,4.18,0,0,0-1.84,1.75,1.14,1.14,0,0,0-.48-.1l-.23,0Z" transform="translate(-7.09 -7.09)"/>
    </g>
    <path class="f" d="M32.08,56a.61.61,0,0,1-.51-.22c-.39-.49.26-1.26.54-1.58,1.51-1.78,2.33-4.62,2.46-8.45v-.52l-.26.45a9.41,9.41,0,0,1-1.44,1.88l0,0c-.42.42-.71.6-1,.6H31.8a.57.57,0,0,1-.41-.26c-.15-.25-.09-.6.2-1l.05-.08v0c.18-.39.76-2,1-6.32A19.4,19.4,0,0,0,31.92,33a5.39,5.39,0,0,1-.24-1c0-.19-.05-.44-.09-.73a18.55,18.55,0,0,1-.12-5.55,27.16,27.16,0,0,1,1.83-6.59,1.27,1.27,0,0,1,.55-.76,1.16,1.16,0,0,1,.64-.17,1.58,1.58,0,0,1,.47.07c.4.09.67.69.78,1.71a5.88,5.88,0,0,0,1.71,2.82l0,0a4.29,4.29,0,0,1,.29.37l.15.2.08-.24a23.56,23.56,0,0,1,1.52-3.33c.18-.39.5-.86.92-.86h.09c.59.08.86.75.91.88A26,26,0,0,0,43.57,24l.25.31.15.22.09-.22a16,16,0,0,1,.79-1.57l.11-.23a2,2,0,0,0,0-.29l0-.19c0-.21.09-.4.14-.58a1.31,1.31,0,0,1,.53-.77.87.87,0,0,1,.52-.16,1.36,1.36,0,0,1,.91.42l0,0s0,0,.06.06a1.09,1.09,0,0,1,.08.16,10.53,10.53,0,0,0,1.87,2.86c.24.3.48.59.71.89l0,0a10.19,10.19,0,0,1,.64,1.17,4.69,4.69,0,0,1,.38,1.37c0,.17.06.37.08.58s.06.5.08.75v0a11.27,11.27,0,0,0,.31,2l0,.09c0,.2,0,.41.07.64a22.19,22.19,0,0,1-.1,5.19,5.6,5.6,0,0,0,.19,2c.06.21.13.42.21.64A10.14,10.14,0,0,0,53,41.63q.21.3.42.63c.21.25.68.9.45,1.45a.76.76,0,0,1-.72.47,1.4,1.4,0,0,1-.4-.07L52.48,44l.1.34v0c0,.12.1.28.16.44.18.49.37.94.57,1.38a.65.65,0,0,0,.09.16v0c.22.38.41.81,0,1.15a.71.71,0,0,1-.18.12.65.65,0,0,1-.21,0,1.54,1.54,0,0,1-.91-.44l-.1-.07a10.38,10.38,0,0,1-2.58-2.82L49.19,44v.46a12.35,12.35,0,0,0,1.25,5.74l0,0A4.07,4.07,0,0,0,51,51l0,0a.42.42,0,0,1-.14.8h-.12c-.78,0-2.22-.92-3.69-3.53l-.2-.35-.05.4c-.07.5-.18,1.54-.24,2.93s0,2.51,0,3.13c0,.11,0,.19,0,.25a.56.56,0,0,1-.12.52.41.41,0,0,1-.29.13.87.87,0,0,1-.51-.27l0,0c-.52-.46-1.31-1.61-2.1-4.49L43.4,50l-.61,2.44-.58,1.71h0l0,.15c-.19.68-.52,1.07-.89,1.07l-.15,0c-.41-.1-.6-.57-.5-1.23a37.73,37.73,0,0,0-.87-8.45l-.11-.55-.15.54c-1.44,5.13-3.59,8.49-6.4,10A2.35,2.35,0,0,1,32.08,56Z" transform="translate(-7.09 -7.09)"/>
    <path class="f" d="M32.08,56a.57.57,0,0,1-.48-.21c-.38-.47.26-1.22.53-1.54,1.52-1.78,2.35-4.63,2.47-8.47l0-.65-.33.56a9,9,0,0,1-1.43,1.87l0,0c-.41.41-.7.59-1,.59H31.8a.47.47,0,0,1-.38-.24c-.15-.23-.08-.57.2-1l.06-.09v0c.17-.38.76-2,1-6.32A19.46,19.46,0,0,0,32,33a5.06,5.06,0,0,1-.23-1c0-.18-.06-.43-.1-.73a18.93,18.93,0,0,1-.11-5.54,26.87,26.87,0,0,1,1.82-6.58,1.23,1.23,0,0,1,.54-.75,1.27,1.27,0,0,1,.62-.16,1.56,1.56,0,0,1,.46.07c.39.09.65.67.76,1.68a5.92,5.92,0,0,0,1.72,2.85l0,0s.13.15.29.37l.19.25.11-.3a23.5,23.5,0,0,1,1.51-3.33c.18-.38.48-.83.89-.83h.08c.58.08.84.73.89.86A26.18,26.18,0,0,0,43.54,24a2.81,2.81,0,0,1,.25.31l.19.26.12-.27a14,14,0,0,1,.78-1.56,2.15,2.15,0,0,0,.11-.24,1.69,1.69,0,0,0,.06-.3c0-.07,0-.13,0-.18,0-.21.09-.4.14-.58a1.35,1.35,0,0,1,.52-.76.89.89,0,0,1,.5-.15,1.3,1.3,0,0,1,.88.41l0,0a.16.16,0,0,1,0,.06.76.76,0,0,1,.08.15,10.58,10.58,0,0,0,1.87,2.87c.24.3.48.59.71.89l0,0a8.75,8.75,0,0,1,.64,1.17,4.89,4.89,0,0,1,.38,1.35c0,.17.06.38.08.58s.06.5.08.75v0a12.51,12.51,0,0,0,.32,2.05V31c0,.2,0,.42.08.64a22.19,22.19,0,0,1-.1,5.19,5.41,5.41,0,0,0,.19,2c.06.21.13.42.21.64A9.82,9.82,0,0,0,53,41.65c.14.2.27.41.41.62s.67.9.45,1.43a.73.73,0,0,1-.69.44,1.32,1.32,0,0,1-.39-.06l-.31-.1.12.4v0l.16.44q.27.74.57,1.38a1,1,0,0,0,.09.17v0c.21.37.4.79,0,1.11a.88.88,0,0,1-.17.12l-.2,0c-.29,0-.5-.15-.89-.43l-.1-.08a10.16,10.16,0,0,1-2.57-2.81l-.31-.47v.57a12.55,12.55,0,0,0,1.25,5.76l0,0a3.48,3.48,0,0,0,.51.79l0,0a.39.39,0,0,1,.23.4.4.4,0,0,1-.36.34h-.11c-.78,0-2.2-.92-3.66-3.52l-.25-.44-.07.51c-.06.49-.17,1.54-.23,2.92s0,2.52,0,3.15a1.44,1.44,0,0,0,0,.24.51.51,0,0,1-.12.5.36.36,0,0,1-.26.11.88.88,0,0,1-.49-.25l0,0c-.52-.46-1.31-1.6-2.09-4.48l-.17-.62-.64,2.56-.57,1.67h0l0,0-.05.14c-.18.66-.49,1-.85,1h-.14c-.39-.1-.58-.56-.48-1.19a38.51,38.51,0,0,0-.86-8.47L39.65,45l-.19.67c-1.44,5.12-3.58,8.47-6.38,10A2.55,2.55,0,0,1,32.08,56Z" transform="translate(-7.09 -7.09)"/>
    <g>
      <path class="b" d="M53.13,44.18a.76.76,0,0,0,.72-.47c.23-.55-.24-1.2-.45-1.45s-.28-.43-.42-.63a10.14,10.14,0,0,1-1.19-2.12c-.08-.22-.15-.43-.21-.64a5.6,5.6,0,0,1-.19-2,22.19,22.19,0,0,0,.1-5.19c0-.23-.05-.44-.07-.64l0-.09a11.27,11.27,0,0,1-.31-2v0c0-.25,0-.5-.08-.75s0-.41-.08-.58a4.69,4.69,0,0,0-.38-1.37A10.19,10.19,0,0,0,49.9,25l0,0c-.23-.3-.47-.59-.71-.89A10.53,10.53,0,0,1,47.3,21.2a1.09,1.09,0,0,0-.08-.16s0-.06-.06-.06l0,0a1.36,1.36,0,0,0-.91-.42.87.87,0,0,0-.52.16,1.31,1.31,0,0,0-.53.77c0,.18-.1.37-.14.58l0,.19a2,2,0,0,1,0,.29l-.11.23a16,16,0,0,0-.79,1.57l-.09.22-.15-.22L43.57,24a26,26,0,0,1-2.13-4.17c0-.13-.32-.8-.91-.88h-.09c-.42,0-.74.47-.92.86A23.56,23.56,0,0,0,38,23.15l-.08.24-.15-.2a4.29,4.29,0,0,0-.29-.37l0,0A5.88,5.88,0,0,1,35.74,20c-.11-1-.38-1.62-.78-1.71a1.58,1.58,0,0,0-.47-.07,1.16,1.16,0,0,0-.64.17,1.27,1.27,0,0,0-.55.76,27.16,27.16,0,0,0-1.83,6.59,18.55,18.55,0,0,0,.12,5.55c0,.29.08.54.09.73a5.39,5.39,0,0,0,.24,1,19.4,19.4,0,0,1,.77,7.45c-.29,4.32-.87,5.93-1,6.32v0l-.05.08c-.29.44-.35.79-.2,1a.57.57,0,0,0,.41.26h.07c.27,0,.56-.18,1-.6l0,0a9.41,9.41,0,0,0,1.44-1.88l.26-.45v.52c-.13,3.83-1,6.67-2.46,8.45-.28.32-.93,1.09-.54,1.58a.61.61,0,0,0,.51.22,2.35,2.35,0,0,0,1-.33c2.81-1.49,5-4.85,6.4-10l.15-.54.11.55a37.73,37.73,0,0,1,.87,8.45c-.1.66.09,1.13.5,1.23l.15,0c.37,0,.7-.39.89-1.07l0-.15h0l.58-1.71L43.4,50l.13.5c.79,2.88,1.58,4,2.1,4.49l0,0a.87.87,0,0,0,.51.27.41.41,0,0,0,.29-.13.56.56,0,0,0,.12-.52c0-.06,0-.14,0-.25,0-.62-.07-1.87,0-3.13s.17-2.43.24-2.93l.05-.4.2.35c1.47,2.61,2.91,3.53,3.69,3.53h.12A.42.42,0,0,0,51,51l0,0a4.07,4.07,0,0,1-.5-.78l0,0a12.35,12.35,0,0,1-1.25-5.74V44l.25.38A10.38,10.38,0,0,0,52,47.19l.1.07a1.54,1.54,0,0,0,.91.44.65.65,0,0,0,.21,0,.71.71,0,0,0,.18-.12c.41-.34.22-.77,0-1.15v0a.65.65,0,0,1-.09-.16c-.2-.44-.39-.89-.57-1.38-.06-.16-.11-.32-.16-.44v0l-.1-.34.25.08A1.4,1.4,0,0,0,53.13,44.18ZM48.72,41.1h0Q48.66,42,48.6,43c-.32,4.83,1.23,7.41,1.29,7.51s.15.29.26.48a5.16,5.16,0,0,1-1.42-1.29A14.41,14.41,0,0,1,47,46.83a.18.18,0,0,0-.05-.07,2.61,2.61,0,0,1-.23-.87.22.22,0,0,0-.23-.22.23.23,0,0,0-.23.23,2.69,2.69,0,0,0,.21.9,4.81,4.81,0,0,0-.3,1.44c-.11.86-.2,2-.25,3,0,1.26,0,2.51,0,3.16-.48-.51-1.45-2.05-2.35-6.51h0c.11-.75.22-1.58.31-2.48.06-.57.11-1.15.16-1.74a.23.23,0,0,0-.21-.25.23.23,0,0,0-.25.21c-.05.59-.1,1.17-.16,1.73,0,.32-.07.64-.11.94h0a28.94,28.94,0,0,1-1.76,7.79h0v0a1.74,1.74,0,0,1-.28.61.14.14,0,0,1,0-.07,1.61,1.61,0,0,1,0-.44c.28-3.6-1-9.34-1.06-9.59-.22-.67-.43-1.36-.62-2h0c-.6-2.09-1-3.85-1-3.87l0,0a9,9,0,0,1-.7-5.75l0-.08,0-.08a7.11,7.11,0,0,1-.53-2.94,17.45,17.45,0,0,1,.79-4.95h0a24.25,24.25,0,0,1,2-4.79,1.31,1.31,0,0,1,.37-.51.41.41,0,0,1,.24.18h0l0,0a1,1,0,0,1,.12.24,27.61,27.61,0,0,0,2.26,4.38l.14.16a4.14,4.14,0,0,1,.55,1.09,6.62,6.62,0,0,1,.27.91.23.23,0,0,0,.28.18.24.24,0,0,0,.18-.27s-.09-.39-.27-.9a15.38,15.38,0,0,1,1.16-2.56l.19-.37v0a5.45,5.45,0,0,0,.3-.78,1.32,1.32,0,0,1,.17-.4.37.37,0,0,1,.15-.06h0c.06,0,.11.18.12.29A9.55,9.55,0,0,0,47.41,26a8.9,8.9,0,0,1,1.78,6.1c0,.68-.07,1.35-.1,2C49,36.2,48.89,38.32,48.72,41.1Zm-15.93,14a1.87,1.87,0,0,1-.69.26,2.41,2.41,0,0,1,.49-.75c1.79-2.1,2.68-5.54,2.63-10.22,0-.19,0-.29,0-.39v-.35c0-.22,0-.31-.07-.37l-.07-.08H35a.3.3,0,0,0-.27.23,10.5,10.5,0,0,1-2.26,3.67l0,0a3.5,3.5,0,0,1-.4.35,1.49,1.49,0,0,1,.13-.25c0-.06.85-1.4,1.2-6.73a20.06,20.06,0,0,0-.79-7.68,4.18,4.18,0,0,1-.22-.87c0-.2,0-.46-.1-.78a18.16,18.16,0,0,1-.11-5.37,27.09,27.09,0,0,1,1.79-6.45v-.05a.58.58,0,0,1,.57-.46,1.08,1.08,0,0,1,.3,0s.23.26.33,1.17A6.65,6.65,0,0,0,37,23.26a8,8,0,0,1,.77,1.1,18.6,18.6,0,0,0-.93,5.48,7.21,7.21,0,0,0,.54,3.07,9.33,9.33,0,0,0,.73,6c.06.25.55,2.39,1.25,4.69C38,49.63,35.78,53.51,32.79,55.09ZM51.55,43a15,15,0,0,0,.38,1.47l0,.13.18.51c.19.51.38,1,.59,1.43l.13.24a1.1,1.1,0,0,1,.15.33h0a2.25,2.25,0,0,1-.51-.32l-.1-.07a10.37,10.37,0,0,1-2.64-3c-.07-.13-.13-.27-.19-.41s-.13-.28-.19-.42-.13-.34-.2-.51,0-.1-.05-.15c.21-3.31.32-5.71.43-8,0-.69.07-1.36.1-2a9.41,9.41,0,0,0-1.85-6.37,9.29,9.29,0,0,1-1-4v0a12.12,12.12,0,0,0,1.86,2.79c.24.28.47.57.7.87A8.42,8.42,0,0,1,50,26.41a4.39,4.39,0,0,1,.33,1.17c0,.2.05.39.08.59s.05.48.08.73v0a12.83,12.83,0,0,0,.33,2.15c0,.2,0,.41.07.62a21.52,21.52,0,0,1-.09,5A5.79,5.79,0,0,0,51,39c.07.23.14.47.23.71A10.86,10.86,0,0,0,52.45,42c.15.21.29.42.43.64v0h0c.2.22.43.64.36.8a.12.12,0,0,1-.13.08c-.37,0-.79-.39-1.18-.79l-.54-.55Z" transform="translate(-7.09 -7.09)"/>
      <path class="b" d="M45.4,29.18a.23.23,0,0,0-.45.11v.05a20.26,20.26,0,0,1,.6,3.85s-.15,1.62-.37,3c0,.22-.11.52-.2.93s-.18.76-.29,1.28a.23.23,0,0,0,.18.27h0a.23.23,0,0,0,.22-.19c.11-.51.21-.93.29-1.27s.17-.72.21-1c.22-1.35.37-3,.37-3a19.22,19.22,0,0,0-.61-4Z" transform="translate(-7.09 -7.09)"/>
      <path class="b" d="M44.61,39.45a.23.23,0,0,0-.27.19c-.1.63-.27,1.33-.44,2a.24.24,0,0,0,.17.28h.06a.23.23,0,0,0,.22-.18c.17-.67.34-1.39.45-2A.23.23,0,0,0,44.61,39.45Z" transform="translate(-7.09 -7.09)"/>
      <path class="b" d="M44,42.18a.23.23,0,0,0-.26.19l-.05.27a.23.23,0,0,0,.19.27h0a.22.22,0,0,0,.22-.2l0-.27A.23.23,0,0,0,44,42.18Z" transform="translate(-7.09 -7.09)"/>
    </g>
    <path class="b" d="M50.84,35.57a.85.85,0,0,1-.31-.06h-.06l0-.06a5,5,0,0,0,.19-2.25c-.06-.27-.14-.54-.22-.81a5.12,5.12,0,0,1-.33-2.26,12,12,0,0,1,.26-1.37l0-.15.08.12A8.08,8.08,0,0,0,51.65,30a3.66,3.66,0,0,1,.44,4.77A1.72,1.72,0,0,1,50.84,35.57Z" transform="translate(-7.09 -7.09)"/>
    <path class="b" d="M35,38.4a4,4,0,0,1-3.49-1.65,2.64,2.64,0,0,1-.34-.72,2.94,2.94,0,0,1-.13-.74,3.83,3.83,0,0,1,1.07-3,2.42,2.42,0,0,1,1.54-.45c.29,0,.6,0,.89.05l.69.05a1.71,1.71,0,0,1,.62.33,3.13,3.13,0,0,1,1,2.64A4.15,4.15,0,0,1,36,38.05a1,1,0,0,1-.61.35H35Z" transform="translate(-7.09 -7.09)"/>
    <path class="b" d="M41.13,39.59a2.62,2.62,0,0,1-1.88-.78c-1.89-1.8-1-4.31-.76-5.13l0-.09a.74.74,0,0,1,.76-.51,1.72,1.72,0,0,1,.46.07,1.41,1.41,0,0,0,.82.3,1,1,0,0,0,.21,0,3.78,3.78,0,0,1,1.63-.51.81.81,0,0,1,.55.16c.87.28,1.28,3,1.16,4.37a1.76,1.76,0,0,1-.68,1.37A4.54,4.54,0,0,1,41.13,39.59Z" transform="translate(-7.09 -7.09)"/>
    <path class="b" d="M48.53,38.55a2.78,2.78,0,0,1-.7-.12l-.23,0-.41-.07A2,2,0,0,1,46,37.92a2.46,2.46,0,0,1-.54-2.16c0-.25.09-.49.15-.74a9,9,0,0,0,.25-1.73v-.08l.08,0a6.13,6.13,0,0,0,.7.2l.1,0a2.51,2.51,0,0,0,.57.1h0a.37.37,0,0,0,.26-.07c.16-.13.1-.36,0-.6s-.15-.56.09-.71l.05,0,0,0a1.32,1.32,0,0,0,.71.43l.31.12a2,2,0,0,1,.79.72A4.35,4.35,0,0,1,50.07,37a2,2,0,0,1-1.18,1.53A1.36,1.36,0,0,1,48.53,38.55Z" transform="translate(-7.09 -7.09)"/>
    <path class="g" d="M52.38,32.65c0,.3-.57.35-.76.34a.94.94,0,0,1-.28-.06c-.08,0-.09,0-.1-.16s0-.48,0-.72a5,5,0,0,0-.11-1.34c0-.13-.2-.36-.33-.15s.07.31,0,.42-.24,0-.26-.09a1.48,1.48,0,0,1,.06-.63c.07-.22.17-.34.4-.26a1.3,1.3,0,0,1,.51.35A2.68,2.68,0,0,1,52.38,32.65Z" transform="translate(-7.09 -7.09)"/>
    <path class="g" d="M32.5,32.49c-.11.13-.24.24-.34.37a1.07,1.07,0,0,0-.15.22,1.58,1.58,0,0,0,1.05,2.3l.28.06.29,0c.92,0,2.59.16,2.52-1.14a3.18,3.18,0,0,0-.06-.62,4.45,4.45,0,0,0-.11-.51c-.13-.44-.65-.91-1.11-.77l-.45,0a6.14,6.14,0,0,1-1.28-.15A.84.84,0,0,0,32.5,32.49Z" transform="translate(-7.09 -7.09)"/>
    <path class="g" d="M38.89,33.64S38,35.38,39,36.13a5.74,5.74,0,0,0,2.72,1c1.23,0,1.86-2.09,1.3-3.31-.43-.94-2.09,0-2.09,0s-.27.28-1.3-.19A.77.77,0,0,0,38.89,33.64Z" transform="translate(-7.09 -7.09)"/>
    <path class="g" d="M46.56,33.94a2.84,2.84,0,0,0,.26,1.83,1.13,1.13,0,0,0,1.1.71,2.84,2.84,0,0,0,1.5-.28,1.28,1.28,0,0,0,.37-1.57A3,3,0,0,0,48,32.82c.34.41.47.9-.09,1.18a1.63,1.63,0,0,1-.69.13.59.59,0,0,1-.37-.08C46.76,34,46.71,33.83,46.56,33.94Z" transform="translate(-7.09 -7.09)"/>
    <path class="a" d="M35.66,34.2c-.12-.39-.79-.23-.79.15a.25.25,0,0,0,.24.25.42.42,0,0,0,.47-.16l0,0a.13.13,0,0,0,0-.14Z" transform="translate(-7.09 -7.09)"/>
    <path class="a" d="M42.68,35.47a.17.17,0,0,0-.16-.16,1.17,1.17,0,0,0-.55.1h0a.26.26,0,0,0-.11.07l-.05,0s0,0,0,0,0,0,0,0-.19.47.06.55a.62.62,0,0,0,.27,0,.74.74,0,0,0,.45-.12.58.58,0,0,0,.16-.21A.27.27,0,0,0,42.68,35.47Z" transform="translate(-7.09 -7.09)"/>
    <path class="a" d="M49.56,35.28c0-.06,0-.12-.1-.12a.7.7,0,0,0-.35.05h0l-.07,0,0,0v0l0,0c-.08.11-.11.34.05.4a.33.33,0,0,0,.17,0,.44.44,0,0,0,.28-.07.28.28,0,0,0,.09-.14A.21.21,0,0,0,49.56,35.28Z" transform="translate(-7.09 -7.09)"/>
    <path class="a" d="M52.3,32.33a.11.11,0,0,0-.06-.07.23.23,0,0,0-.16,0h0l0,0a0,0,0,0,1,0,0h0c0,.06,0,.18,0,.22a.12.12,0,0,0,.08,0,.22.22,0,0,0,.14,0,.59.59,0,0,0,0-.08A.15.15,0,0,0,52.3,32.33Z" transform="translate(-7.09 -7.09)"/>
  </g>
</svg>
