<svg xmlns="http://www.w3.org/2000/svg" width="54" height="54" viewBox="0 0 54 54">
  <defs>
    <style>
      .a {
        fill: none;
      }

      .b {
        fill: #026937;
      }

      .c {
        fill: #d13239;
      }

      .d {
        fill: #fff;
      }

      .e {
        fill: #232222;
      }
    </style>
  </defs>
  <title>npsa-logo-icon</title>
  <g>
    <g>
      <path class="a" d="M32.65,45l0-.07-.09.1Z"/>
      <path class="b" d="M34.38,45.78a.35.35,0,0,1-.17.28l-.07,0,.11,0a9.73,9.73,0,0,0,3.33,2.11h0a1.47,1.47,0,0,0-.48,2.06,4.78,4.78,0,0,0,2.39,2.05,5.18,5.18,0,0,0,.09-2.9,2.1,2.1,0,0,0-.37-.55c.77.3,1.56.58,2.34.84a1.49,1.49,0,0,0-.43,2,4.78,4.78,0,0,0,2.39,2.05,5.18,5.18,0,0,0,.09-2.9,2.11,2.11,0,0,0-.55-.71c2.32.72,4.17,1.18,4.17,1.18l-.3-.92c-.62-.15-1.2-.3-1.75-.45a2.41,2.41,0,0,0,.51-.24,4.61,4.61,0,0,0,1.77-2.57,8.42,8.42,0,0,0-1-.06,4.09,4.09,0,0,0-2,.4,2.16,2.16,0,0,0-1,1.42v.56c-1-.3-1.85-.61-2.62-.91a2.52,2.52,0,0,0,.36-.18,4.61,4.61,0,0,0,1.77-2.57,8.38,8.38,0,0,0-1-.06,4.08,4.08,0,0,0-2,.4,2.14,2.14,0,0,0-1,1.59,12.65,12.65,0,0,1-3.2-2.07,75.89,75.89,0,0,0,9.08-3l.69-1.85h0a38,38,0,0,1-7.7,2.84,2,2,0,0,0,.59-1.16,4.79,4.79,0,0,0-1-2.63h0a4.56,4.56,0,0,0-1.72,2.59,1.56,1.56,0,0,0,.69,1.6l-2,.51A5.33,5.33,0,0,1,34.38,45.78Z"/>
      <path class="b" d="M33.89,46.07A3,3,0,0,1,32.65,45l-.14,0,.09-.1a9.41,9.41,0,0,1-.87-2c-.13-.38-.25-.74-.39-1s-.23-.57-.34-.86a5.72,5.72,0,0,0-1.44,2.51,2.11,2.11,0,0,0,.65,2c-1.8.35-3.77.69-5.94,1a2.79,2.79,0,0,0,1-1.71C25.55,43.25,24,41,24,41h0a6.25,6.25,0,0,0-2.53,3.51,2.27,2.27,0,0,0,.82,2.26q-1.84.24-3.85.46l-.61,0a5.16,5.16,0,0,1-.94,0,5,5,0,0,1-1.52-.43l-.23-.12c-.44-.32-.91-.68-1.38-1a3.34,3.34,0,0,1-.24-.28l0,.11-.21-.16a.87.87,0,0,0,.27.05,2.05,2.05,0,0,0,1.61-1.71,4.79,4.79,0,0,0-1-2.63h0a4.56,4.56,0,0,0-1.72,2.59,1.69,1.69,0,0,0,.27,1.21c-1.79-1.42-3.5-2.85-4.27-3.34l-.81,1.13h0c.53.32,1.07.69,1.6,1.09a2.1,2.1,0,0,0-.61.1c-1.08.36-2,2.06-2,2.06a4.93,4.93,0,0,0,3.18.34,1.66,1.66,0,0,0,1.17-1.13c1.25,1,2.31,2.06,2.87,2.6q-2.8.23-5.88.4L6.83,49.52H10.7c2.17-.13,5.1-.36,8.48-.77l-.12.08a2.05,2.05,0,0,0,.21,2.62,6.74,6.74,0,0,0,3.18,1.41h.22a5,5,0,0,0-1-3.4,2.5,2.5,0,0,0-1.43-.83c1.25-.16,2.55-.34,3.89-.55a2.42,2.42,0,0,0,.16,2.79c.78,1,2.88,1.68,3.49,1.84H28a5.66,5.66,0,0,0-.79-3.88,2.8,2.8,0,0,0-1.42-1c.94-.16,1.9-.33,2.87-.52l-.1.09a2.43,2.43,0,0,0,.61,3,6.76,6.76,0,0,0,3.25,1.13h.94a6.12,6.12,0,0,0-1.62-3.82A3,3,0,0,0,30.21,47c1.29-.27,2.59-.56,3.89-.88H34A.35.35,0,0,1,33.89,46.07Z"/>
      <path class="c" d="M17.85,3.85a26.44,26.44,0,0,0-1.92,7.66,16,16,0,0,0,.56,5.15l.12,0a8.28,8.28,0,0,1,2.17-.32,3.6,3.6,0,0,1,2.62.92c1.45,1.42,1.13,5.4.81,6.27a2.49,2.49,0,0,1-2,1.74h-.15a2.09,2.09,0,0,1-.8-.28c-.25-.14-.35-.18-.56-.1a1.68,1.68,0,0,1-.42.1A18.64,18.64,0,0,1,18,29.58c-.07.37-.69,2.53-1.19,4.22-.41,1.36-.68,2.25-.88,2.84.21-.18.5-.44.87-.81l.11-.11a10.86,10.86,0,0,0,1.57-1.87c.48-.64,1.28-1.72,2.07-3,0,.4-.09.81-.14,1.21s-.1.78-.13,1.15a43.18,43.18,0,0,1-.61,4.61c-.53,2.82-1.4,6.27-3.44,8.88A10.86,10.86,0,0,0,18.87,45c3-2.65,5.21-6.53,7-12.22l.17-.57q-.41-1.57-.93-3.15a41.19,41.19,0,0,1-2-15.61,22.87,22.87,0,0,1,1-6L23.89,7a22.57,22.57,0,0,1-3.18-4.51,4.22,4.22,0,0,1-.27-.93C20.36,1.2,20.16.3,20,.22a.58.58,0,0,0-.24.18A10.34,10.34,0,0,0,17.85,3.85Z"/>
      <path class="c" d="M35,15.79A2.15,2.15,0,0,1,35,16v0h0c0,.14,0,.27,0,.4a16.24,16.24,0,0,1,.07,1.93A3,3,0,0,1,36.37,18a5.54,5.54,0,0,1,2.51.31c0-.37,0-.74,0-1.11a13.39,13.39,0,0,0,0-2.4,10.65,10.65,0,0,0-1.79-4.23,10.43,10.43,0,0,1-1.61-4.48,5.54,5.54,0,0,1,0-.8,5.66,5.66,0,0,0,0-.61L35.3,5l-.08.14c-.24.41-.49.81-.74,1.19a10.34,10.34,0,0,0-1.54,3.13,27.34,27.34,0,0,1,1.27,3.17A15,15,0,0,1,35,15.78Z"/>
      <path class="c" d="M37.68,26.1h-.3a4,4,0,0,1-3.08-1.43A3.62,3.62,0,0,1,34,24.3c-.14.45-.28.89-.43,1.32a64.24,64.24,0,0,0-2.37,10.6l-.11.63a4.2,4.2,0,0,0,0,2.14l.07.25a17.54,17.54,0,0,0,.78,2.3c.15.33.28.71.41,1.11a5.87,5.87,0,0,0,1.27,2.45c0-.26-.08-.52-.14-.79a8.08,8.08,0,0,1-.19-1.39,22.33,22.33,0,0,1,.3-3.66,11.43,11.43,0,0,1,.79-3c.07-.15.12-.3.18-.45.18-.34.29-.57.29-.57l1.19-1.72a.35.35,0,0,1,0,.28c-.64,1.33.21,3.32,1.33,4.7a17.55,17.55,0,0,0,1.44,1.62,3.68,3.68,0,0,0,.43.3c-.15-.3-.3-.59-.45-.88a10.65,10.65,0,0,1-1.26-3.18,23.67,23.67,0,0,1-.1-5.16l0-.41a19.83,19.83,0,0,1,.37-2.62c.13-.71.27-1.43.34-2.16A2.64,2.64,0,0,1,37.68,26.1Z"/>
      <path class="c" d="M23.81,13.44a46.58,46.58,0,0,0,0,5.74l.12-.3a1.75,1.75,0,0,1,.46-.69l.05,0,.06,0a7.73,7.73,0,0,1,2.64-.41c.69,0,1.38.06,2.06.12l.37,0a4.25,4.25,0,0,1,.57.13,2.24,2.24,0,0,1,1.69,2.3,13.3,13.3,0,0,1-.36,3.86,2.64,2.64,0,0,1-.59,1.27,2.52,2.52,0,0,1-2.17,1.13H28.6c-1.18,0-2.77,0-3.72-.89q.38,1.56.9,3.11a44.07,44.07,0,0,1,2.36,15.07c1.49-3.13,2-6.47,2.55-10,.17-1.09.34-2.21.55-3.31a45,45,0,0,1,1.39-5.15c.31-1,.63-2,.9-3a3.13,3.13,0,0,1,.06-.48c.05-.27.1-.54.14-.81a6.46,6.46,0,0,1,.43-1.73A13.88,13.88,0,0,0,34.22,16h0c-.35-3.13-1.92-6-3.44-8.72C30,5.87,29.22,4.44,28.59,3l-.1-.24a3.21,3.21,0,0,0-.44-.87l0,0a11.41,11.41,0,0,0-1.79,2.64l-.3.54A18.85,18.85,0,0,0,23.81,13.44Z"/>
      <polygon class="d" points="16.04 17.68 16.04 17.68 16.04 17.68 16.04 17.68"/>
      <polygon points="16.04 17.68 16.04 17.68 16.04 17.68 16.04 17.68"/>
    </g>
    <path class="e" d="M31.09,19.63a1.37,1.37,0,0,0-.62-.77c.73.87-.28,1.58-1.63,1.84l-1,0-.42-.07a6.77,6.77,0,0,1-1.66-.41,1.16,1.16,0,0,1-.57-.53,1.69,1.69,0,0,1-.26-1l-.07,0h0c-.59.27-.75,1.26-.73,2.23a4.39,4.39,0,0,0,0,.57q.07.52.15,1l.07.32h0a4.07,4.07,0,0,0,.94,2.15,2.71,2.71,0,0,0,1.53.67h0a7.12,7.12,0,0,0,2.27.09,1.78,1.78,0,0,0,.7-.24l0,0,.09-.06,0,0,.08-.07a2.19,2.19,0,0,0,.36-.41l0,0a1.86,1.86,0,0,0,.4-.79A6.75,6.75,0,0,0,31.09,19.63Z"/>
    <g>
      <path class="e" d="M21.73,22.32V22c.09-1.23.15-3.15-.73-4.18l-.12-.13a2.06,2.06,0,0,0-.28-.23,2.23,2.23,0,0,0-.31-.18.61.61,0,0,1,0,.14v0c-.34.69-1.91.92-2.48.92a3.61,3.61,0,0,1-.87-.11,1.55,1.55,0,0,1-.83-.45.59.59,0,0,1,0-.13,2.75,2.75,0,0,0-1.21,2c0,.05,0,.11,0,.16a4.38,4.38,0,0,0,.59,2.68l.14.22v0l0,0a2.41,2.41,0,0,0,1,.84l.58.25.36.15a1.73,1.73,0,0,0,.63.17h.09a.94.94,0,0,0,.24-.06,1.21,1.21,0,0,1,.44-.09,1.08,1.08,0,0,1,.38.07h0a2.39,2.39,0,0,1,.31.15,1.44,1.44,0,0,0,.55.2,1,1,0,0,0,.71-.27l.06,0,0,0L21,24.1l.06-.07,0,0h0l.16-.21h0a2.42,2.42,0,0,0,.3-.56,3.48,3.48,0,0,0,.14-.67v0Z"/>
      <path d="M20.91,17.69Z"/>
    </g>
    <path class="e" d="M40.08,21.05a1,1,0,0,1-.09-.29,5.26,5.26,0,0,0-.27-.62,3.11,3.11,0,0,0-.25-.41,1.9,1.9,0,0,0-.16-.21.59.59,0,0,1-.28.58h0a4.41,4.41,0,0,1-1.86.29,2,2,0,0,1-1.82-1.17,1.38,1.38,0,0,1,0-.19l-.14.11-.09.09h0c-.64.69-.61,1.94-.78,2.79a2.44,2.44,0,0,0,0,.28s0,.07,0,.1,0,.12,0,.17,0,.08,0,.12,0,.09,0,.13a2.58,2.58,0,0,0,.06.32v0l0,.09a2.79,2.79,0,0,0,.51,1l.1.11.05.06.2.2.14.12.1.08.26.17.06,0,.11.06.2.09h0a2.8,2.8,0,0,0,1.46.25h.11a2,2,0,0,0,.6-.14,2.19,2.19,0,0,0,.83-.6l.08-.09A4.59,4.59,0,0,0,40,22.51a5.15,5.15,0,0,0,.09-1.09C40.12,21.56,40.14,21.58,40.08,21.05Z"/>
  </g>
</svg>
